# xmcd
#
# Track frame offsets: 
#        150
#        15780
#        30375
#        45577
#        62287
#        74525
#        90238
#        106223
#        117331
#        137256
#        154701
#        167155
#        181847
#        196614
#        212163
#        227874
#
# Disc length: 3249 seconds
#
# Revision: 0
# Processed by: cddbd v1.5.2PL0 Copyright (c) Steve Scherf et al.
# Submitted via: ExactAudioCopy v0.99pb5
#
DISCID=ba0caf10
DTITLE=Lonnie Donegan - Sundown (Expanded Edition)
DYEAR=1978
DGENRE=Country
TTITLE0=All Out And Down
TTITLE1=Home
TTITLE2=Streamline Train
TTITLE3=Sundown
TTITLE4=Mama's Got The Know-How
TTITLE5=Morning Light
TTITLE6=Louisiana Sun
TTITLE7=Battle Of New Orleans
TTITLE8=The Cajun Stripper
TTITLE9=Dreaming My Dreams
TTITLE10=On A Monday (*)
TTITLE11=Home (Alt Take) (*)
TTITLE12=Streamline Train (Alt Take) (*)
TTITLE13=All Out And Down (Alt Take) (*)
TTITLE14=Morning Light (Alt Take) (*)
TTITLE15=Louisiana Sun (Alt Take) (*)
EXTD=
EXTT0=
EXTT1=
EXTT2=
EXTT3=
EXTT4=
EXTT5=
EXTT6=
EXTT7=
EXTT8=
EXTT9=
EXTT10=
EXTT11=
EXTT12=
EXTT13=
EXTT14=
EXTT15=
PLAYORDER=
